<svg xmlns="http://www.w3.org/2000/svg" viewBox="0 0 512 512" x="0px" y="0px"><path d="M470.3,145.763l13.386-6.9c-2.567-4.978-5.335-9.94-8.23-14.747l-12.9,7.767C465.281,136.408,467.887,141.078,470.3,145.763Z"/><path d="M453.138,117.439l12.313-8.67a258.509,258.509,0,0,0-85.325-76.715l-7.311,13.164A243.363,243.363,0,0,1,453.138,117.439Z"/><path d="M41.7,366.237l-13.386,6.9c2.567,4.978,5.335,9.94,8.23,14.747l12.9-7.767C46.719,375.592,44.113,370.922,41.7,366.237Z"/><path d="M58.862,394.561l-12.313,8.67a258.509,258.509,0,0,0,85.325,76.715l7.311-13.164A243.363,243.363,0,0,1,58.862,394.561Z"/><path d="M256,32A224,224,0,0,0,97.608,414.392,224,224,0,0,0,414.392,97.608,222.533,222.533,0,0,0,256,32Zm0,424C145.72,456,56,366.28,56,256S145.72,56,256,56s200,89.72,200,200S366.28,456,256,456Z"/><path d="M232,256a24,24,0,1,0,24-24A24.028,24.028,0,0,0,232,256Zm32,8H248V248h16Z"/><path d="M72.5,242.42q-.493,6.728-.5,13.58a184.053,184.053,0,0,0,3.838,37.461l68.38-8.549a79.532,79.532,0,0,1,89.226,73.933l5.021,80.315c5.773.548,11.62.84,17.535.84s11.762-.292,17.535-.84l5.021-80.309a79.52,79.52,0,0,1,89.226-73.939l68.38,8.548A184.036,184.036,0,0,0,440,256q0-6.852-.5-13.58C399.706,216.2,329.942,200,256,200S112.294,216.2,72.5,242.42ZM200,264H176V248h24Zm112-16h24v16H312Zm-16,8a40,40,0,1,1-40-40A40.045,40.045,0,0,1,296,256Z"/></svg>