<svg xmlns="http://www.w3.org/2000/svg" version="1.1" x="0px" y="0px" viewBox="0 0 96 96" enable-background="new 0 0 96 96" xml:space="preserve"><path d="M89.913,46.968c-2.807-3.314-5.613-6.628-8.42-9.941c-0.36-0.426-0.792-0.545-1.194-0.474  c-0.459-0.017-0.905,0.205-1.161,0.778c-0.195,0.438-0.393,0.878-0.589,1.316c-0.299,0.667-0.243,1.253,0.234,1.818  c1.481,1.75,2.965,3.5,4.446,5.25c-23.485,0-46.974,0-70.461,0c1.482-1.75,2.965-3.5,4.447-5.25c0.479-0.565,0.531-1.15,0.234-1.818  c-0.195-0.438-0.392-0.878-0.587-1.316c-0.378-0.849-1.771-0.994-2.355-0.304c-2.807,3.313-5.613,6.626-8.42,9.94  c-0.563,0.664-0.563,1.457,0,2.121c2.807,3.314,5.613,6.628,8.42,9.941c0.584,0.689,1.978,0.545,2.355-0.305  c0.195-0.438,0.392-0.877,0.587-1.315c0.298-0.667,0.244-1.253-0.234-1.817c-1.481-1.75-2.963-3.499-4.444-5.249  c23.485,0,46.973,0,70.458,0c-1.481,1.75-2.965,3.499-4.446,5.249c-0.479,0.564-0.533,1.151-0.234,1.817  c0.196,0.438,0.394,0.878,0.589,1.315c0.379,0.849,1.771,0.994,2.355,0.305c2.807-3.313,5.613-6.627,8.42-9.939  C90.476,48.425,90.476,47.632,89.913,46.968z"/>
</svg>