<?xml version="1.0"?>
<svg x="0" y="0" xmlns="http://www.w3.org/2000/svg" xmlns:svg="http://www.w3.org/2000/svg" viewBox="0 0 100 100" version="1.1" xml:space="preserve">
<path d="m87.7,12.5c-0.8,-3.7 -4.1,-6.6 -8.2,-6.6l-42.6,0c-4,0 -7.4,2.8 -8.2,6.5l-17,0c-3.7,0.1 -6.7,3 -6.7,6.7l0,61.7c0,3.7 3,6.6 6.7,6.6l16.9,0c0.7,3.9 4.1,6.8 8.2,6.8l42.7,0c3.8,0 7,-2.5 8,-5.8c4.2,-0.4 7.5,-3.9 7.5,-8.2l0,-59.6c0,-4.1 -3.2,-7.6 -7.3,-8.1zm-50.8,-3.7l42.7,0c2.5,0 4.5,1.6 5.2,3.8c-3.3,0.8 -5.8,3.5 -6.3,6.8l-41.6,0c-3,0 -5.4,-2.4 -5.4,-5.3s2.4,-5.3 5.4,-5.3zm-8.2,75.7l-17,0c-2.1,0 -3.8,-1.7 -3.8,-3.7l0,-61.7c0,-2.1 1.7,-3.7 3.8,-3.7l16.9,0c0.6,4 4.1,7 8.2,7l41.4,0l0,55.5l-41.3,0c-4.1,-0.1 -7.5,2.8 -8.2,6.6zm50.8,6.9l-42.6,0c-3,0 -5.4,-2.4 -5.4,-5.3s2.4,-5.3 5.4,-5.3l41.5,0c0.2,3.6 2.8,6.5 6.2,7.4c-0.9,1.8 -2.8,3.2 -5.1,3.2zm12.6,-11.2c0,2.9 -2.4,5.3 -5.4,5.3s-5.4,-2.4 -5.4,-5.3l0,-59.6c0,-2.9 2.4,-5.3 5.4,-5.3s5.4,2.4 5.4,5.3l0,59.6z" transform="rotate(90 50 50)"/>
</svg>