<svg xmlns="http://www.w3.org/2000/svg" version="1.1" x="0px" y="0px" viewBox="0 0 96 96" enable-background="new 0 0 96 96" xml:space="preserve"><path d="M57.536,79.137c-0.388-0.196-0.775-0.393-1.164-0.589c-0.616-0.313-1.308-0.255-1.817,0.234  c-1.446,1.387-2.892,2.773-4.338,4.16c0-23.295,0-46.591,0-69.887c1.446,1.387,2.892,2.773,4.338,4.16  c0.511,0.489,1.2,0.546,1.817,0.234c0.389-0.195,0.776-0.392,1.164-0.587c0.859-0.434,0.972-1.715,0.304-2.355  c-2.927-2.807-5.853-5.613-8.779-8.42c-0.599-0.575-1.522-0.575-2.121,0c-2.927,2.807-5.853,5.613-8.779,8.42  c-0.668,0.641-0.556,1.922,0.304,2.355c0.387,0.195,0.774,0.392,1.162,0.587c0.617,0.312,1.307,0.255,1.817-0.234  c1.445-1.386,2.891-2.772,4.336-4.158c0,23.295,0,46.59,0,69.885c-1.445-1.387-2.891-2.773-4.336-4.16  c-0.51-0.489-1.201-0.547-1.817-0.234c-0.388,0.196-0.775,0.393-1.162,0.589c-0.858,0.435-0.973,1.714-0.304,2.355  c2.926,2.807,5.852,5.613,8.777,8.42c0.599,0.575,1.522,0.574,2.121,0c2.927-2.807,5.854-5.613,8.781-8.42  C58.509,80.851,58.395,79.57,57.536,79.137z"/>
</svg>